<svg width="1200" height="450" xmlns="http://www.w3.org/2000/svg">
    <style>
        
        * { 
            font-family: -apple-system, BlinkMacSystemFont, 'Segoe UI', 'Helvetica', 'Arial', sans-serif;
        }
        text { fill: #e6edf3; }
        .title { 
            font-size: 20px; 
            font-weight: 600; 
            fill: #58a6ff; 
        }
        .subtitle { 
            font-size: 14px; 
            font-weight: 500; 
            fill: #8b949e; 
        }
        .value { font-size: 28px; font-weight: 700; }
        .value-large { font-size: 36px; font-weight: 700; }
        .label { font-size: 12px; opacity: 0.7; }
        .label-small { font-size: 10px; opacity: 0.6; }
        .badge {
            font-size: 11px;
            font-weight: 600;
            text-transform: uppercase;
            letter-spacing: 0.5px;
        }
        .metric-change {
            font-size: 13px;
            font-weight: 600;
        }
        .trend-up { fill: #3fb950; }
        .trend-down { fill: #f85149; }
        .trend-neutral { fill: #8b949e; }
        
        
        @keyframes fadeIn {
            from { opacity: 0; }
            to { opacity: 1; }
        }
        @keyframes slideUp {
            from { transform: translateY(10px); opacity: 0; }
            to { transform: translateY(0); opacity: 1; }
        }
        @keyframes scaleIn {
            from { transform: scale(0.95); opacity: 0; }
            to { transform: scale(1); opacity: 1; }
        }
        @keyframes pulse {
            0%, 100% { opacity: 1; }
            50% { opacity: 0.7; }
        }
        @keyframes glow {
            0%, 100% { filter: drop-shadow(0 0 3px currentColor); }
            50% { filter: drop-shadow(0 0 8px currentColor); }
        }
        .animated { animation: fadeIn 0.6s ease-out; }
        .slide-up { animation: slideUp 0.5s ease-out; }
        .scale-in { animation: scaleIn 0.4s ease-out; }
        .pulse { animation: pulse 2s ease-in-out infinite; }
        .glow { animation: glow 2s ease-in-out infinite; }
        
    </style>
    <rect class="scale-in" width="1200" height="450" fill="#161b22" rx="12"/>
    <text class="title animated" x="24" y="40">📈 Performance Trend</text>
    <text class="subtitle animated" x="24" y="65" style="animation-delay: 0.1s">Daily commit activity comparison • Updated February 26, 2026</text>
    <g class="fade-in" opacity="0.15">
        <line x1="80" y1="140.0" x2="1120" y2="140.0" 
                  stroke="#30363d" stroke-width="1" stroke-dasharray="4,4"/>
        <line x1="80" y1="184.0" x2="1120" y2="184.0" 
                  stroke="#30363d" stroke-width="1" stroke-dasharray="4,4"/>
        <line x1="80" y1="228.0" x2="1120" y2="228.0" 
                  stroke="#30363d" stroke-width="1" stroke-dasharray="4,4"/>
        <line x1="80" y1="272.0" x2="1120" y2="272.0" 
                  stroke="#30363d" stroke-width="1" stroke-dasharray="4,4"/>
        <line x1="80" y1="316.0" x2="1120" y2="316.0" 
                  stroke="#30363d" stroke-width="1" stroke-dasharray="4,4"/>
        <line x1="80" y1="360.0" x2="1120" y2="360.0" 
                  stroke="#30363d" stroke-width="1" stroke-dasharray="4,4"/>
    </g>
    <g class="fade-in" style="animation-delay: 0.2s">
        <text x="65" y="144.0" text-anchor="end" 
                  style="font-size: 11px; fill: #8b949e">10</text>
        <text x="65" y="188.0" text-anchor="end" 
                  style="font-size: 11px; fill: #8b949e">8</text>
        <text x="65" y="232.0" text-anchor="end" 
                  style="font-size: 11px; fill: #8b949e">6</text>
        <text x="65" y="276.0" text-anchor="end" 
                  style="font-size: 11px; fill: #8b949e">4</text>
        <text x="65" y="320.0" text-anchor="end" 
                  style="font-size: 11px; fill: #8b949e">2</text>
        <text x="65" y="364.0" text-anchor="end" 
                  style="font-size: 11px; fill: #8b949e">0</text>
    </g>
    <g class="fade-in" style="animation-delay: 0.3s">
        <text x="80.0" y="380" text-anchor="middle" 
                  style="font-size: 11px; fill: #8b949e">Day 0</text>
        <text x="322.66666666666663" y="380" text-anchor="middle" 
                  style="font-size: 11px; fill: #8b949e">Day 7</text>
        <text x="565.3333333333333" y="380" text-anchor="middle" 
                  style="font-size: 11px; fill: #8b949e">Day 14</text>
        <text x="808.0" y="380" text-anchor="middle" 
                  style="font-size: 11px; fill: #8b949e">Day 21</text>
        <text x="1120.0" y="380" text-anchor="middle" 
                  style="font-size: 11px; fill: #8b949e">Day 30</text>
    </g>
    <g class="fade-in" style="animation-delay: 0.4s">
    <path d="M 80.0 360 L 80.0 360.0 L 114.66666666666666 360.0 L 149.33333333333331 360.0 L 184.0 360.0 L 218.66666666666666 360.0 L 253.33333333333331 360.0 L 288.0 360.0 L 322.66666666666663 360.0 L 357.3333333333333 360.0 L 392.0 360.0 L 426.66666666666663 360.0 L 461.3333333333333 360.0 L 496.0 360.0 L 530.6666666666667 360.0 L 565.3333333333333 360.0 L 600.0 360.0 L 634.6666666666666 360.0 L 669.3333333333334 360.0 L 704.0 360.0 L 738.6666666666666 360.0 L 773.3333333333333 360.0 L 808.0 360.0 L 842.6666666666666 360.0 L 877.3333333333334 360.0 L 912.0 360.0 L 946.6666666666667 360.0 L 981.3333333333334 360.0 L 1016.0 360.0 L 1050.6666666666665 360.0 L 1085.3333333333335 360.0 L 1120.0 360.0 L 1120.0 360 Z" fill="url(#prev-gradient)" opacity="0.3">
        <animate attributeName="opacity" from="0" to="0.3" dur="1s" begin="0.4s" fill="freeze"/>
    </path>
</g>
    <g class="fade-in" style="animation-delay: 0.5s">
    <path d="M 80.0 360 L 80.0 360.0 L 114.66666666666666 360.0 L 149.33333333333331 360.0 L 184.0 360.0 L 218.66666666666666 360.0 L 253.33333333333331 360.0 L 288.0 360.0 L 322.66666666666663 360.0 L 357.3333333333333 360.0 L 392.0 360.0 L 426.66666666666663 360.0 L 461.3333333333333 360.0 L 496.0 360.0 L 530.6666666666667 360.0 L 565.3333333333333 360.0 L 600.0 360.0 L 634.6666666666666 360.0 L 669.3333333333334 360.0 L 704.0 360.0 L 738.6666666666666 360.0 L 773.3333333333333 360.0 L 808.0 360.0 L 842.6666666666666 360.0 L 877.3333333333334 360.0 L 912.0 360.0 L 946.6666666666667 360.0 L 981.3333333333334 360.0 L 1016.0 360.0 L 1050.6666666666665 360.0 L 1085.3333333333335 360.0 L 1120.0 360.0 L 1120.0 360 Z" fill="url(#curr-gradient)" opacity="0.3">
        <animate attributeName="opacity" from="0" to="0.3" dur="1s" begin="0.5s" fill="freeze"/>
    </path>
</g>
    <g class="fade-in" style="animation-delay: 0.6s">
    <path d="M 80.0 360.0 L 114.66666666666666 360.0 L 149.33333333333331 360.0 L 184.0 360.0 L 218.66666666666666 360.0 L 253.33333333333331 360.0 L 288.0 360.0 L 322.66666666666663 360.0 L 357.3333333333333 360.0 L 392.0 360.0 L 426.66666666666663 360.0 L 461.3333333333333 360.0 L 496.0 360.0 L 530.6666666666667 360.0 L 565.3333333333333 360.0 L 600.0 360.0 L 634.6666666666666 360.0 L 669.3333333333334 360.0 L 704.0 360.0 L 738.6666666666666 360.0 L 773.3333333333333 360.0 L 808.0 360.0 L 842.6666666666666 360.0 L 877.3333333333334 360.0 L 912.0 360.0 L 946.6666666666667 360.0 L 981.3333333333334 360.0 L 1016.0 360.0 L 1050.6666666666665 360.0 L 1085.3333333333335 360.0 L 1120.0 360.0" fill="none" stroke="#58a6ff" 
          stroke-width="3" stroke-linecap="round" stroke-linejoin="round">
        <animate attributeName="stroke-dasharray" from="0 2000" to="2000 0" dur="2s" begin="0.6s" fill="freeze"/>
    </path>
</g>
    <g class="fade-in" style="animation-delay: 0.7s">
    <path d="M 80.0 360.0 L 114.66666666666666 360.0 L 149.33333333333331 360.0 L 184.0 360.0 L 218.66666666666666 360.0 L 253.33333333333331 360.0 L 288.0 360.0 L 322.66666666666663 360.0 L 357.3333333333333 360.0 L 392.0 360.0 L 426.66666666666663 360.0 L 461.3333333333333 360.0 L 496.0 360.0 L 530.6666666666667 360.0 L 565.3333333333333 360.0 L 600.0 360.0 L 634.6666666666666 360.0 L 669.3333333333334 360.0 L 704.0 360.0 L 738.6666666666666 360.0 L 773.3333333333333 360.0 L 808.0 360.0 L 842.6666666666666 360.0 L 877.3333333333334 360.0 L 912.0 360.0 L 946.6666666666667 360.0 L 981.3333333333334 360.0 L 1016.0 360.0 L 1050.6666666666665 360.0 L 1085.3333333333335 360.0 L 1120.0 360.0" fill="none" stroke="#3fb950" 
          stroke-width="3" stroke-linecap="round" stroke-linejoin="round">
        <animate attributeName="stroke-dasharray" from="0 2000" to="2000 0" dur="2s" begin="0.7s" fill="freeze"/>
    </path>
</g>
    <g class="scale-in" style="animation-delay: 1.2s">
    <circle cx="1120.0" cy="360.0" r="5" 
            fill="#58a6ff" stroke="#0d1117" stroke-width="2"/>
    <circle cx="1120.0" cy="360.0" r="5" 
            fill="#3fb950" stroke="#0d1117" stroke-width="2"/>
</g>
    <g class="slide-up" style="animation-delay: 0.3s">
    <rect x="80" y="82" width="4" height="20" fill="#58a6ff" rx="2"/>
    <text x="95" y="90" style="font-size: 13px; font-weight: 600; fill: #e6edf3">
        January 2026
    </text>
    <text x="95" y="105" style="font-size: 11px; fill: #8b949e">
        0 commits • 0 PRs • 15 repos
    </text>
</g>
    <g class="slide-up" style="animation-delay: 0.4s">
    <rect x="380" y="82" width="4" height="20" fill="#3fb950" rx="2"/>
    <text x="395" y="90" style="font-size: 13px; font-weight: 600; fill: #e6edf3">
        February 2026
    </text>
    <text x="395" y="105" style="font-size: 11px; fill: #8b949e">
        0 commits • 0 PRs • 15 repos
    </text>
</g>
    <g class="scale-in" style="animation-delay: 0.5s">
    <rect x="750" y="75" width="280" height="42" fill="#3fb950" rx="8" opacity="0.15"/>
    <text x="770" y="90" style="font-size: 13px; font-weight: 600; fill: #e6edf3">
        Monthly Change
    </text>
    <text x="770" y="107" style="font-size: 20px; font-weight: 700; fill: #3fb950">
        ↑ 100.0%
    </text>
</g>
    <defs>
    <linearGradient id="prev-gradient" x1="0%" y1="0%" x2="0%" y2="100%">
        <stop offset="0%" style="stop-color:#58a6ff;stop-opacity:0.4" />
        <stop offset="100%" style="stop-color:#58a6ff;stop-opacity:0.05" />
    </linearGradient>
    <linearGradient id="curr-gradient" x1="0%" y1="0%" x2="0%" y2="100%">
        <stop offset="0%" style="stop-color:#3fb950;stop-opacity:0.4" />
        <stop offset="100%" style="stop-color:#3fb950;stop-opacity:0.05" />
    </linearGradient>
</defs>
</svg>